HIERARCHY
ROOT Hips
{
	OFFSET 0.00000 0.00000 0.00000
	CHANNELS 6 Xposition Yposition Zposition Zrotation Yrotation Xrotation 
	JOINT RightUpLegDummy
	{
		OFFSET 0 0 0
		CHANNELS 3 Zrotation Yrotation Xrotation
		JOINT RightUpLeg
		{
			OFFSET -3.52197 -3.41223 0.04002
			CHANNELS 3 Zrotation Yrotation Xrotation
			JOINT RightLeg
			{
				OFFSET 0.00006 -17.42390 1.60435
				CHANNELS 3 Zrotation Yrotation Xrotation
				JOINT RightFoot
				{
					OFFSET 0.06154 -16.50078 -1.63900
					CHANNELS 3 Zrotation Yrotation Xrotation
					JOINT RightToes
					{
						OFFSET 0.00298 -1.73825 3.34613
						CHANNELS 3 Zrotation Yrotation Xrotation
						End Site
						{
							OFFSET 0.00480 -0.05416 3.85043
						}
					}
				}
			}
		}
	}
	JOINT SpineDummy
	{
		OFFSET 0 0 0
		CHANNELS 3 Zrotation Yrotation Xrotation
		JOINT Spine
		{
			OFFSET 0.00000 4.68130 0.00000
			CHANNELS 3 Zrotation Yrotation Xrotation
			JOINT Spine1
			{
				OFFSET -0.00000 10.10138 0.05002
				CHANNELS 3 Zrotation Yrotation Xrotation
				JOINT HEadDummy
				{
					OFFSET 0 0 0
					CHANNELS 3 Zrotation Yrotation Xrotation
					JOINT Head
					{
						OFFSET -0.00000 3.43865 0.00438
						CHANNELS 3 Zrotation Yrotation Xrotation
						End Site
						{
							OFFSET -0.11417 5.02924 0.98962
						}
					}
				}
				JOINT LeftShoulder1Dummy
				{
					OFFSET 0 0 0
					CHANNELS 3 Zrotation Yrotation Xrotation
					JOINT LeftShoulder1
					{
						OFFSET 3.53937 -0.14262 -0.08662
						CHANNELS 3 Zrotation Yrotation Xrotation
						JOINT LeftArm
						{
							OFFSET 4.04833 -0.00133 0.12681
							CHANNELS 3 Zrotation Yrotation Xrotation
							JOINT LeftForeArm
							{
								OFFSET 10.33880 -0.01036 -0.55515
								CHANNELS 3 Zrotation Yrotation Xrotation
								JOINT LeftHand
								{
									OFFSET 8.69677 0.07543 0.40060
									CHANNELS 3 Zrotation Yrotation Xrotation
									End Site
									{
										OFFSET 5.28377 -0.21905 0.59205
									}
								}
							}
						}
					}
				}
				JOINT RightShoulderDummy
				{
					OFFSET 0 0 0
					CHANNELS 3 Zrotation Yrotation Xrotation
					JOINT RightShoulder
					{
						OFFSET -3.53937 -0.14262 -0.08660
						CHANNELS 3 Zrotation Yrotation Xrotation
						JOINT RightArm
						{
							OFFSET -4.04833 -0.00133 0.12683
							CHANNELS 3 Zrotation Yrotation Xrotation
							JOINT RightForeArm
							{
								OFFSET -10.37987 -0.01039 -0.55511
								CHANNELS 3 Zrotation Yrotation Xrotation
								JOINT RightHand
								{
									OFFSET -8.67398 0.07538 0.40058
									CHANNELS 3 Zrotation Yrotation Xrotation
									End Site
									{
										OFFSET -5.24810 -0.21916 0.59204
									}
								}
							}
						}
					}
				}
			}
		}
	}
	JOINT LeftUpLegDummy
	{
		OFFSET 0 0 0
		CHANNELS 3 Zrotation Yrotation Xrotation
		JOINT LeftUpLeg
		{
			OFFSET 3.52197 -3.41223 0.04002
			CHANNELS 3 Zrotation Yrotation Xrotation
			JOINT LeftLeg
			{
				OFFSET -0.00012 -17.42399 1.60337
				CHANNELS 3 Zrotation Yrotation Xrotation
				JOINT LeftFoot
				{
					OFFSET -0.09972 -16.50070 -1.63802
					CHANNELS 3 Zrotation Yrotation Xrotation
					JOINT LeftToes
					{
						OFFSET -0.01575 -1.73823 3.34611
						CHANNELS 3 Zrotation Yrotation Xrotation
						End Site
						{
							OFFSET 0.03150 -0.01868 3.85031
						}
					}
				}
			}
		}
	}
}
MOTION
Frames: 16
Frame Time: 0.033333
-86.1484 39.7312 -2.0945 -9.5264 80.5910 -7.7778 0.0000 0.0000 0.0000 1.5399 -5.0532 7.5776 -0.0949 5.2920 14.2234 2.8374 0.0853 -17.3823 0.0000 0.0000 -0.0000 0.0000 0.0000 0.0000 9.2881 3.9300 -2.8321 -4.8965 5.5422 11.6612 0.0000 0.0000 0.0000 1.8245 0.2781 -9.0196 0.0000 0.0000 0.0000 -16.3749 -4.9002 1.9409 -61.8454 2.4836 -12.8860 -15.6521 2.1028 40.3622 15.0402 -2.9829 -1.0623 0.0000 0.0000 0.0000 27.4345 -0.8245 0.8994 48.1251 27.1237 29.6329 1.1368 23.8666 -8.8515 -6.6373 1.9551 -0.4027 0.0000 0.0000 0.0000 2.0372 -0.6264 -22.6313 -1.4172 9.2787 -3.2723 -3.5869 0.5295 6.7329 0.0000 0.0000 0.0000
-84.4484 39.4431 -2.0935 0.2150 83.1183 0.6410 0.0000 0.0000 0.0000 -1.1527 -7.1540 12.6065 0.1337 4.4994 13.0603 3.6878 0.1654 -18.6134 0.0000 0.0000 -0.0000 0.0000 0.0000 0.0000 6.2000 2.2425 -0.1074 -4.6338 3.5246 7.1232 0.0000 0.0000 0.0000 2.1521 1.6523 -7.1194 0.0000 0.0000 0.0000 -22.6664 -6.0705 2.7716 -55.1014 8.4511 -6.6838 -16.9647 0.3657 34.8382 14.7062 -2.8507 -1.0220 0.0000 0.0000 0.0000 32.8636 1.6821 2.0171 41.0952 25.1600 32.1600 1.2142 25.0277 -12.3882 -7.1638 1.6050 -0.4173 0.0000 0.0000 0.0000 -0.1828 -2.5019 -21.2248 -2.2801 11.8381 -6.0871 -3.2037 0.4426 5.5789 0.0000 0.0000 0.0000
-82.6690 39.3998 -2.0516 7.1891 83.8936 7.9208 0.0000 0.0000 0.0000 -2.3028 -7.2480 14.9229 -0.2539 4.6029 13.2565 6.7762 0.2341 -16.3165 0.0000 0.0000 -0.0000 0.0000 0.0000 0.0000 3.6827 1.9706 -0.8222 -3.4504 2.9935 6.2827 0.0000 0.0000 0.0000 2.0071 1.9227 -6.2238 0.0000 0.0000 0.0000 -26.5210 -6.1526 3.1505 -51.4360 11.2420 -4.6690 -17.5662 1.3601 33.4328 13.8560 -2.3767 -0.9077 0.0000 0.0000 0.0000 34.6329 2.4450 2.4196 38.6019 23.7147 33.8937 1.1965 25.4210 -11.9466 -6.8358 2.1333 -0.4244 0.0000 0.0000 0.0000 -1.4555 -2.9761 -20.2791 -2.7722 14.4694 -6.3215 -0.2940 -0.0067 10.2864 0.0000 0.0000 0.0000
-80.8183 39.4035 -1.9299 14.6365 83.9914 16.4070 0.0000 0.0000 0.0000 -2.3384 -4.9672 16.0565 -1.5395 2.7539 13.8224 11.3619 0.0975 -12.8023 0.0000 0.0000 -0.0000 0.0000 0.0000 0.0000 0.5901 2.8111 -5.4375 -1.4491 3.5653 11.9136 0.0000 0.0000 0.0000 1.7898 0.2752 -8.2674 0.0000 0.0000 0.0000 -23.5196 -5.0248 2.5381 -54.5644 8.3376 -15.7530 -15.5655 4.0670 47.4245 13.2438 -2.3578 -0.8644 0.0000 0.0000 0.0000 28.4113 1.4742 1.7170 45.6022 23.8764 31.5989 1.0198 24.8267 -8.4720 -6.8479 2.2362 -0.4304 0.0000 0.0000 0.0000 -2.4967 -3.0907 -19.8234 -2.7742 15.0201 -4.7232 3.5965 -0.9782 16.1108 0.0000 0.0000 0.0000
-79.0199 39.3981 -1.8310 49.6885 85.0016 51.1649 0.0000 0.0000 0.0000 -3.3080 -1.3954 17.1385 -2.3028 -3.4097 17.2654 15.4408 -0.4838 -7.9939 0.0000 0.0000 -0.0000 0.0000 0.0000 0.0000 -4.7798 2.4335 -7.4648 1.1202 2.6221 16.3757 0.0000 0.0000 0.0000 2.0569 -1.2568 -10.1726 0.0000 0.0000 0.0000 -19.8787 -3.7425 1.9087 -58.3907 4.2840 -21.3365 -12.8003 4.8528 55.8977 12.9028 -2.3811 -0.8438 0.0000 0.0000 0.0000 21.9825 0.1920 1.0474 53.8807 23.3007 27.8911 1.1943 23.3845 -5.8358 -7.5288 2.0300 -0.4635 0.0000 0.0000 0.0000 -5.4737 -5.1017 -18.8100 -2.1267 13.5828 -0.9599 6.2218 -1.6331 16.3024 0.0000 0.0000 0.0000
-77.4321 39.5003 -1.7919 83.7925 83.5122 84.6516 0.0000 0.0000 0.0000 -6.0005 -2.3512 14.9480 -3.4508 -5.2572 25.9737 17.0561 -1.9186 1.4406 0.0000 0.0000 -0.0000 0.0000 0.0000 0.0000 -9.0383 1.5007 -6.2654 1.2159 1.6101 16.8191 0.0000 0.0000 0.0000 2.7500 -1.5775 -10.3756 0.0000 0.0000 0.0000 -19.0746 -3.6390 1.8281 -58.8277 2.2347 -22.3906 -11.5411 4.8404 56.7779 12.6958 -2.1449 -0.8058 0.0000 0.0000 0.0000 20.3459 0.3173 1.0241 56.8328 21.5991 21.7730 3.4747 20.7795 -0.6317 -7.8193 2.5277 -0.5116 0.0000 0.0000 0.0000 -8.7495 -6.5813 -17.0908 -2.0993 12.2993 2.1792 7.0818 -1.5638 12.3570 0.0000 0.0000 0.0000
-76.0039 39.5400 -1.7643 82.7803 82.0167 83.8976 0.0000 0.0000 0.0000 -7.6988 -1.7548 8.2736 -5.8125 -5.7880 38.3591 16.4314 -3.8047 14.9524 0.0000 0.0000 -0.0000 0.0000 0.0000 0.0000 -10.3661 1.2128 -5.5336 -0.9441 1.6603 16.6364 0.0000 0.0000 0.0000 3.0917 -1.0654 -10.1232 0.0000 0.0000 0.0000 -19.5200 -3.8485 1.9121 -58.0640 1.4880 -22.2769 -11.7790 4.9750 52.5929 12.8816 -1.8744 -0.7899 0.0000 0.0000 0.0000 20.7119 1.0065 1.2240 57.1302 20.4836 13.5295 7.4921 16.8362 9.6726 -7.2751 2.9006 -0.4948 0.0000 0.0000 0.0000 -10.1586 -5.6326 -16.8278 -2.3489 11.9493 6.1604 6.0270 -1.0442 7.4581 0.0000 0.0000 0.0000
-74.6407 39.4785 -1.7465 78.3756 80.9933 79.5841 0.0000 0.0000 0.0000 -8.8399 -0.6876 1.0582 -9.3688 -6.2744 49.9535 15.1075 -4.6881 23.6079 0.0000 0.0000 -0.0000 0.0000 0.0000 0.0000 -11.8989 0.8597 -5.0194 -1.9236 1.2012 17.0844 0.0000 0.0000 0.0000 2.4253 -0.2047 -10.1758 0.0000 0.0000 0.0000 -19.7087 -3.5510 1.8472 -58.4173 0.2518 -21.6899 -12.3608 5.1656 45.8910 14.4154 -2.1343 -0.9172 0.0000 0.0000 0.0000 19.6519 1.4240 1.2883 58.4963 19.7868 9.8276 9.8245 13.9666 17.3593 -6.3433 2.3208 -0.4011 0.0000 0.0000 0.0000 -11.0860 -4.3974 -16.1165 -2.3645 11.6077 9.3347 4.6078 -0.6469 4.0346 0.0000 0.0000 0.0000
-73.1537 39.5763 -1.7820 86.6490 80.7263 87.1507 0.0000 0.0000 0.0000 -9.6156 -1.8010 -4.5674 -13.3109 -6.2962 58.8263 12.5396 -3.8494 23.4347 0.0000 0.0000 -0.0000 0.0000 0.0000 0.0000 -14.0548 -0.2151 -3.4754 -0.5590 -0.6885 16.6373 0.0000 0.0000 0.0000 0.9528 2.9382 -10.6017 0.0000 0.0000 0.0000 -19.8195 -2.8921 1.6815 -58.9777 -2.3914 -20.8745 -12.7590 4.9903 40.4292 17.1223 -2.7946 -1.1882 0.0000 0.0000 0.0000 18.3839 1.4847 1.2454 59.7404 18.1235 13.8296 9.7986 14.4302 16.8661 -5.8203 1.7732 -0.3434 0.0000 0.0000 0.0000 -12.2863 -4.4782 -13.0115 -2.0937 10.3364 9.9242 3.8255 -0.4415 1.5437 0.0000 0.0000 0.0000
-71.5812 39.7940 -1.8268 99.3877 81.0317 99.4293 0.0000 0.0000 0.0000 -9.3780 -3.4453 -10.0716 -16.4503 -5.9127 64.5728 8.7423 -2.2945 18.9080 0.0000 0.0000 -0.0000 0.0000 0.0000 0.0000 -15.0724 -1.4746 -2.1884 0.9365 -2.6095 15.5042 0.0000 0.0000 0.0000 0.4518 3.6263 -9.7947 0.0000 0.0000 0.0000 -20.0486 -2.3039 1.5395 -58.5255 -6.2486 -19.6947 -13.0664 4.4195 37.7950 19.2506 -2.9971 -1.3738 0.0000 0.0000 0.0000 18.8569 1.4474 1.2578 59.0843 15.2957 20.6035 8.5269 16.4279 11.7564 -6.1440 2.2728 -0.3857 0.0000 0.0000 0.0000 -12.7406 -4.5889 -9.5528 -1.8156 8.4565 9.6921 3.3506 -0.2917 -1.1555 0.0000 0.0000 0.0000
-70.0229 39.8947 -1.8186 107.8780 81.6153 108.0170 0.0000 0.0000 0.0000 -8.4503 -3.6544 -15.9342 -17.6722 -5.5305 67.0100 5.6692 -1.3260 16.1426 0.0000 0.0000 -0.0000 0.0000 0.0000 0.0000 -15.0197 -2.3786 -2.0912 1.4599 -3.7125 15.0628 0.0000 0.0000 0.0000 0.4985 3.4213 -9.0910 0.0000 0.0000 0.0000 -19.9130 -1.9466 1.4380 -57.7994 -10.7364 -18.1923 -13.2550 4.0426 37.2523 19.3041 -2.6223 -1.3176 0.0000 0.0000 0.0000 19.7253 1.3544 1.2735 58.1659 12.3520 23.5816 7.8206 17.3638 8.7439 -6.9901 2.9807 -0.4786 0.0000 0.0000 0.0000 -12.1896 -3.7295 -7.4140 -1.8297 6.4593 10.7404 2.9489 -0.1636 -4.0465 0.0000 0.0000 0.0000
-68.4676 39.8691 -1.7896 114.7230 81.9145 114.5390 0.0000 0.0000 0.0000 -7.9224 -3.1245 -20.4676 -16.5911 -5.4835 66.0280 4.0300 -0.9008 15.4335 0.0000 0.0000 -0.0000 0.0000 0.0000 0.0000 -15.1998 -2.9878 -2.0178 1.9972 -4.5528 15.3448 0.0000 0.0000 0.0000 0.3411 3.6461 -9.2974 0.0000 0.0000 0.0000 -19.5259 -1.9522 1.4198 -57.3058 -15.3798 -16.7186 -13.2281 2.8622 37.4771 17.6919 -2.4792 -1.1831 0.0000 0.0000 0.0000 19.3816 1.2949 1.2426 58.5822 9.7576 21.8104 8.1180 17.0339 9.3859 -7.5333 2.8153 -0.5084 0.0000 0.0000 0.0000 -11.6361 -2.6573 -5.0513 -2.0164 4.4916 12.1591 2.9377 -0.0755 -6.8018 0.0000 0.0000 0.0000
-66.8869 39.8689 -1.7880 122.8880 81.9218 121.9310 0.0000 0.0000 0.0000 -7.7787 -2.7790 -23.3149 -14.2132 -5.8319 61.8715 3.5118 -0.7210 13.4469 0.0000 0.0000 -0.0000 0.0000 0.0000 0.0000 -15.2525 -3.5052 -1.7417 2.8002 -5.3394 15.7737 0.0000 0.0000 0.0000 0.3199 3.6296 -9.6665 0.0000 0.0000 0.0000 -19.6574 -2.4805 1.5644 -56.1068 -19.9853 -15.8103 -13.1370 1.5742 36.9685 16.2400 -2.7764 -1.1225 0.0000 0.0000 0.0000 18.7851 1.3682 1.2345 59.1840 7.1711 18.1634 8.6610 16.3034 11.4711 -7.3415 2.1564 -0.4585 0.0000 0.0000 0.0000 -11.2533 -2.0902 -1.5612 -1.9258 2.9662 12.3521 3.3294 0.0004 -9.4069 0.0000 0.0000 0.0000
-65.2963 39.8741 -1.7823 130.1570 82.2978 129.0510 0.0000 0.0000 0.0000 -7.4206 -2.1878 -25.6403 -11.8593 -6.6315 54.8310 4.2217 -0.7530 9.8497 0.0000 0.0000 -0.0000 0.0000 0.0000 0.0000 -14.3287 -3.9555 -2.5481 3.0987 -5.6917 16.4814 0.0000 0.0000 0.0000 0.6018 3.1854 -9.6665 0.0000 0.0000 0.0000 -20.1910 -3.2858 1.8084 -54.0715 -24.4872 -15.6065 -13.0774 0.7699 35.3521 15.8881 -2.9042 -1.1140 0.0000 0.0000 0.0000 19.0449 1.4937 1.2783 58.8614 4.6905 13.3903 9.5839 15.0373 14.8460 -6.8711 1.8483 -0.4121 0.0000 0.0000 0.0000 -10.4594 -1.6603 1.5079 -1.5599 2.1867 11.9328 3.8490 0.0856 -11.7802 0.0000 0.0000 0.0000
-63.6976 39.7562 -1.7358 134.8250 82.9266 134.4200 0.0000 0.0000 0.0000 -7.1176 -1.0996 -27.4727 -9.7934 -7.9409 44.8964 5.6027 -0.8963 7.3748 0.0000 0.0000 -0.0000 0.0000 0.0000 0.0000 -13.2361 -4.3749 -4.4034 2.9880 -5.7674 17.4626 0.0000 0.0000 0.0000 0.7021 2.8551 -9.7925 0.0000 0.0000 0.0000 -20.1696 -3.7714 1.9361 -52.5778 -28.5606 -15.5150 -12.9871 -0.2303 33.3025 15.9352 -2.6982 -1.0906 0.0000 0.0000 0.0000 19.4549 1.6195 1.3300 58.4180 2.6989 7.0238 10.9377 12.8237 20.2802 -6.7284 1.9500 -0.4082 0.0000 0.0000 0.0000 -9.4529 -1.0759 3.3429 -1.2750 1.7497 12.0930 4.3672 0.1806 -13.8871 0.0000 0.0000 0.0000
-62.1034 39.6009 -1.6909 138.4390 83.2337 138.8880 0.0000 0.0000 0.0000 -7.2376 0.0320 -27.9233 -7.4143 -9.4231 31.9770 5.4869 -0.8852 7.5512 0.0000 0.0000 -0.0000 0.0000 0.0000 0.0000 -12.7062 -4.9260 -5.9116 3.3473 -6.1413 18.1662 0.0000 0.0000 0.0000 0.3874 3.0507 -10.5790 0.0000 0.0000 0.0000 -19.4206 -3.7020 1.8674 -52.1982 -31.6561 -14.5394 -12.9660 -2.2222 31.1103 15.7274 -2.6415 -1.0686 0.0000 0.0000 0.0000 19.3030 1.7928 1.3674 58.5514 1.0915 0.8520 11.9583 10.3730 26.1956 -6.7220 2.0713 -0.4139 0.0000 0.0000 0.0000 -8.6735 -0.7092 5.3461 -1.1878 1.1763 11.5984 4.6025 0.2619 -15.5336 0.0000 0.0000 0.0000
